<?xml version="1.0" standalone="no"?>
<!DOCTYPE svg PUBLIC "-//W3C//DTD SVG 20010904//EN"
 "http://www.w3.org/TR/2001/REC-SVG-20010904/DTD/svg10.dtd">
<svg version="1.0" xmlns="http://www.w3.org/2000/svg"
 width="700.000000pt" height="700.000000pt" viewBox="0 0 700.000000 700.000000"
 preserveAspectRatio="xMidYMid meet">
<metadata>
Created by potrace 1.14, written by Peter Selinger 2001-2017
</metadata>
<g transform="translate(0.000000,700.000000) scale(0.100000,-0.100000)"
fill="#000000" stroke="none">
<path d="M3278 6996 c-1 -2 -42 -6 -89 -10 -47 -4 -95 -8 -105 -10 -10 -2 -48
-7 -84 -12 -36 -4 -67 -8 -70 -9 -3 -1 -25 -5 -50 -9 -25 -4 -101 -21 -170
-38 -69 -16 -135 -31 -147 -34 -13 -2 -78 -23 -145 -45 -524 -175 -973 -446
-1353 -818 -417 -408 -706 -867 -888 -1412 -71 -212 -137 -508 -153 -689 -2
-30 -7 -71 -9 -90 -3 -19 -7 -99 -10 -177 l-6 -143 318 0 318 0 1 63 c1 74 13
264 19 292 2 11 7 42 10 69 3 27 8 52 9 55 2 3 7 28 10 55 4 27 22 108 41 180
30 116 53 188 110 346 30 81 140 303 205 410 56 93 167 256 195 286 5 6 24 28
40 49 142 181 396 416 600 556 208 144 443 263 680 345 94 33 282 86 350 98
88 17 144 26 180 31 22 4 51 8 65 10 138 24 625 23 710 0 8 -3 36 -7 62 -10
74 -9 273 -53 387 -86 816 -235 1511 -858 1836 -1644 35 -84 113 -308 120
-344 2 -9 8 -34 13 -56 16 -63 51 -235 58 -290 11 -88 12 -99 20 -190 14 -160
8 -430 -12 -570 -2 -16 -6 -46 -8 -65 -3 -30 -16 -101 -31 -178 -2 -13 -6 -31
-9 -40 -3 -9 -7 -28 -10 -42 -5 -29 -63 -231 -76 -263 -4 -12 -23 -60 -40
-107 -34 -89 -127 -286 -181 -380 -280 -492 -733 -915 -1242 -1159 -173 -83
-376 -158 -535 -197 -41 -10 -155 -34 -180 -38 -51 -9 -167 -27 -197 -31 -41
-6 -229 -18 -287 -19 l-48 -1 0 -317 0 -317 133 4 c72 3 148 7 167 10 19 2 67
7 105 11 39 3 79 8 90 10 10 2 37 6 60 10 107 15 257 48 382 84 444 125 815
309 1179 586 123 92 149 115 263 219 423 390 749 894 938 1450 37 110 83 272
99 350 16 79 54 301 59 350 4 33 9 71 11 85 9 48 11 526 3 612 -8 86 -18 175
-24 213 -2 11 -6 45 -10 75 -4 30 -9 58 -11 61 -2 4 -6 24 -10 45 -18 120
-145 559 -174 599 -3 6 -15 33 -25 60 -10 28 -42 100 -70 160 -234 496 -607
957 -1040 1287 -72 54 -234 168 -240 168 -2 0 -36 20 -75 45 -91 59 -325 179
-465 237 -239 100 -569 194 -785 223 -19 3 -46 7 -60 10 -13 2 -54 7 -90 11
-36 3 -76 8 -90 11 -27 5 -536 14 -542 9z"/>
<path d="M3502 5202 l3 -317 25 -1 c217 -10 403 -56 580 -143 475 -235 778
-724 773 -1250 -1 -68 -12 -201 -18 -210 -2 -4 -6 -24 -9 -46 -38 -240 -186
-516 -381 -711 -184 -183 -398 -303 -655 -369 -13 -3 -149 -26 -175 -30 -16
-2 -56 -4 -87 -4 l-58 -1 0 -318 0 -319 88 3 c48 2 105 6 127 9 22 4 57 9 78
11 22 2 71 11 110 20 40 8 83 17 97 20 14 3 77 23 142 44 448 149 829 453
1081 864 34 56 62 103 63 106 0 3 19 43 41 90 58 122 117 290 138 395 21 104
36 199 43 260 10 101 6 373 -6 447 -6 35 -14 83 -17 108 -4 25 -20 95 -35 156
-142 551 -533 1030 -1052 1290 -169 86 -429 168 -593 189 -27 4 -64 8 -81 10
-18 3 -75 7 -128 10 l-96 5 2 -318z"/>
<path d="M3430 3873 c-51 -10 -127 -46 -167 -79 -205 -168 -179 -490 50 -618
34 -19 76 -38 92 -41 234 -50 448 100 469 329 17 174 -85 335 -248 392 -44 16
-155 25 -196 17z"/>
</g>
</svg>
